<svg width="19" height="19" viewBox="0 0 19 19" fill="none" xmlns="http://www.w3.org/2000/svg">
<path d="M9.50046 11.8552C9.3949 11.8552 9.29277 11.8354 9.19408 11.7958C9.09486 11.7563 9.01226 11.7035 8.94629 11.6375L5.30462 7.99584C5.15948 7.8507 5.08691 7.66598 5.08691 7.44167C5.08691 7.21737 5.15948 7.03265 5.30462 6.88751C5.44976 6.74237 5.63448 6.6698 5.85879 6.6698C6.08309 6.6698 6.26782 6.74237 6.41296 6.88751L9.50046 9.97501L12.588 6.88751C12.7331 6.74237 12.9178 6.6698 13.1421 6.6698C13.3664 6.6698 13.5511 6.74237 13.6963 6.88751C13.8414 7.03265 13.914 7.21737 13.914 7.44167C13.914 7.66598 13.8414 7.8507 13.6963 7.99584L10.0546 11.6375C9.97546 11.7167 9.88969 11.7726 9.79733 11.8053C9.70497 11.8386 9.60601 11.8552 9.50046 11.8552Z" fill="#676C74"/>
</svg>
