<svg width="23" height="27" viewBox="0 0 23 27" fill="none" xmlns="http://www.w3.org/2000/svg">
<g clip-path="url(#clip0_19_450)">
<path d="M11.5002 0C10.5915 0 9.85738 0.754102 9.85738 1.6875V2.7C6.10961 3.48047 3.28595 6.88711 3.28595 10.9688V11.9602C3.28595 14.4387 2.39778 16.8328 0.795997 18.6891L0.416086 19.1268C-0.0151638 19.6225 -0.117842 20.3344 0.143988 20.9408C0.405818 21.5473 0.99622 21.9375 1.6431 21.9375H21.3574C22.0043 21.9375 22.5895 21.5473 22.8565 20.9408C23.1235 20.3344 23.0156 19.6225 22.5844 19.1268L22.2045 18.6891C20.6027 16.8328 19.7145 14.4439 19.7145 11.9602V10.9688C19.7145 6.88711 16.8909 3.48047 13.1431 2.7V1.6875C13.1431 0.754102 12.4089 0 11.5002 0ZM13.8259 26.0139C14.442 25.3811 14.786 24.5215 14.786 23.625H11.5002H8.21452C8.21452 24.5215 8.5585 25.3811 9.17457 26.0139C9.79064 26.6467 10.6275 27 11.5002 27C12.373 27 13.2098 26.6467 13.8259 26.0139Z" fill="#4085EC"/>
</g>
<defs>
<clipPath id="clip0_19_450">
<rect width="23" height="27" fill="white"/>
</clipPath>
</defs>
</svg>
