<svg width="27" height="27" viewBox="0 0 27 27" fill="none" xmlns="http://www.w3.org/2000/svg">
<g clip-path="url(#clip0_19_440)">
<path d="M13.5 27C17.0804 27 20.5142 25.5777 23.0459 23.0459C25.5777 20.5142 27 17.0804 27 13.5C27 9.91958 25.5777 6.4858 23.0459 3.95406C20.5142 1.42232 17.0804 0 13.5 0C9.91958 0 6.4858 1.42232 3.95406 3.95406C1.42232 6.4858 0 9.91958 0 13.5C0 17.0804 1.42232 20.5142 3.95406 23.0459C6.4858 25.5777 9.91958 27 13.5 27ZM16.1736 17.1439L8.56406 20.0707C7.54102 20.4662 6.53379 19.459 6.9293 18.4359L9.85605 10.8264C10.0301 10.3781 10.3781 10.0301 10.8264 9.85605L18.4359 6.9293C19.459 6.53379 20.4662 7.54102 20.0707 8.56406L17.1439 16.1736C16.9752 16.6219 16.6219 16.9699 16.1736 17.1439ZM15.1875 13.5C15.1875 13.0524 15.0097 12.6232 14.6932 12.3068C14.3768 11.9903 13.9476 11.8125 13.5 11.8125C13.0524 11.8125 12.6232 11.9903 12.3068 12.3068C11.9903 12.6232 11.8125 13.0524 11.8125 13.5C11.8125 13.9476 11.9903 14.3768 12.3068 14.6932C12.6232 15.0097 13.0524 15.1875 13.5 15.1875C13.9476 15.1875 14.3768 15.0097 14.6932 14.6932C15.0097 14.3768 15.1875 13.9476 15.1875 13.5Z" fill="#4085EC"/>
</g>
<defs>
<clipPath id="clip0_19_440">
<rect width="27" height="27" fill="white"/>
</clipPath>
</defs>
</svg>
