<svg width="24" height="20" viewBox="0 0 24 20" fill="none" xmlns="http://www.w3.org/2000/svg">
<path d="M4.32999 2.72799C4.33612 2.71562 4.34628 2.70593 4.35864 2.70065C5.78826 2.01739 7.29693 1.53018 8.84687 1.2512C8.86095 1.24847 8.8755 1.25044 8.88845 1.25682C8.90139 1.2632 8.91208 1.27367 8.91898 1.28674C9.12442 1.67514 9.3109 2.07408 9.47773 2.48205C11.1485 2.21787 12.848 2.21787 14.5187 2.48205C14.6866 2.07304 14.8761 1.674 15.0863 1.28674C15.0935 1.27395 15.1042 1.26372 15.1171 1.25738C15.13 1.25104 15.1444 1.24889 15.1584 1.2512C16.7085 1.52959 18.2173 2.01684 19.6467 2.70069C19.659 2.70609 19.6693 2.71532 19.6763 2.72709C22.5349 7.17389 23.3179 11.5113 22.9338 15.7951C22.9327 15.8056 22.9296 15.8158 22.9247 15.825C22.9197 15.8342 22.9131 15.8423 22.9051 15.8488C21.2406 17.1326 19.3788 18.1126 17.3992 18.7468C17.3852 18.7512 17.3703 18.751 17.3565 18.7463C17.3427 18.7415 17.3306 18.7325 17.3218 18.7204C16.8966 18.1178 16.5199 17.4797 16.1954 16.8125C16.1909 16.8034 16.1884 16.7933 16.1879 16.7831C16.1875 16.7728 16.1891 16.7626 16.1927 16.753C16.1963 16.7435 16.2018 16.7348 16.2089 16.7277C16.2159 16.7205 16.2244 16.715 16.2336 16.7114C16.8277 16.4746 17.4029 16.1892 17.9537 15.8578C17.9637 15.8517 17.9721 15.8431 17.9781 15.8328C17.9842 15.8224 17.9877 15.8107 17.9884 15.7987C17.9891 15.7866 17.9869 15.7745 17.9821 15.7636C17.9772 15.7526 17.9698 15.743 17.9606 15.7357C17.845 15.6455 17.7294 15.5517 17.619 15.4569C17.6092 15.4485 17.5974 15.4431 17.5848 15.4413C17.5722 15.4396 17.5594 15.4415 17.5478 15.4469C13.9392 17.1624 10.0324 17.1624 6.46652 15.4469C6.4549 15.4411 6.44195 15.4389 6.42918 15.4406C6.41641 15.4422 6.40434 15.4475 6.39437 15.456C6.28397 15.5508 6.16836 15.6455 6.05192 15.7357C6.04263 15.7429 6.03519 15.7524 6.03027 15.7634C6.02534 15.7743 6.02308 15.7864 6.02368 15.7984C6.02428 15.8105 6.02772 15.8222 6.03371 15.8326C6.03969 15.8429 6.04804 15.8516 6.058 15.8578C6.60755 16.192 7.18322 16.4773 7.77887 16.7105C7.78812 16.7142 7.79652 16.7199 7.80353 16.7271C7.81053 16.7344 7.81598 16.7432 7.81952 16.7528C7.82306 16.7624 7.82461 16.7727 7.82407 16.783C7.82353 16.7933 7.8209 16.8034 7.81637 16.8125C7.48647 17.4759 7.11028 18.1133 6.69084 18.7194C6.68233 18.7318 6.67028 18.7411 6.6564 18.746C6.64251 18.7509 6.6275 18.7512 6.61348 18.7467C4.63032 18.1146 2.76527 17.1346 1.09866 15.8488C1.09054 15.8426 1.08378 15.8347 1.07884 15.8256C1.07389 15.8165 1.07087 15.8064 1.06997 15.796C0.610068 10.8435 1.83992 6.54162 4.32999 2.72799ZM15.6565 13.1867C16.7429 13.1867 17.6381 12.1482 17.6381 10.8727C17.6381 9.59725 16.7603 8.55862 15.6565 8.55862C14.5441 8.55862 13.6575 9.60627 13.6749 10.8726C13.6749 12.1482 14.5528 13.1867 15.6565 13.1867ZM8.32974 13.1867C9.41616 13.1867 10.3114 12.1482 10.3114 10.8727C10.3114 9.59725 9.43352 8.55862 8.32974 8.55862C7.21723 8.55862 6.33073 9.60627 6.3481 10.8726C6.3481 12.1482 7.21723 13.1867 8.32974 13.1867Z" fill="white"/>
</svg>
