<svg width="105" height="25" viewBox="0 0 105 25" fill="none" xmlns="http://www.w3.org/2000/svg">
<path d="M9.4457 4.69349C9.99219 4.76647 10.5449 4.90786 11.1038 5.11768C11.6689 5.31837 12.2279 5.61941 12.7806 6.0208C12.9855 6.17588 13.1718 6.35377 13.3395 6.55446V5.06294H18.2952V17.5151C18.2952 18.6645 18.1648 19.6816 17.904 20.5665C17.6431 21.4514 17.283 22.1401 16.8234 22.6327C15.3019 24.2109 12.8924 25 9.59474 25C8.73773 25 7.741 24.9361 6.60454 24.8084C5.47428 24.6807 4.53654 24.4709 3.79132 24.179C2.89705 23.7867 2.12388 23.1983 1.47181 22.4138C0.825955 21.6293 0.456449 20.7626 0.363296 19.8139H6.22261C6.30955 20.1423 6.54554 20.3795 6.93057 20.5255C7.32181 20.6714 7.73168 20.7535 8.16019 20.7718C8.5949 20.7991 8.97062 20.8128 9.28734 20.8128H9.88352C10.1878 20.8128 10.5014 20.8037 10.8244 20.7854C11.2218 20.7581 11.5913 20.676 11.9329 20.5391C12.2744 20.4114 12.5508 20.1925 12.7619 19.8823C12.9793 19.5813 13.088 19.1525 13.088 18.5961V17.3645C12.9948 17.4558 12.8924 17.5424 12.7806 17.6245C12.2279 18.035 11.6689 18.3452 11.1038 18.555C10.5449 18.7557 9.98909 18.8925 9.43638 18.9655C8.88988 19.0385 8.36202 19.075 7.85278 19.075C7.34355 19.075 6.80326 19.0522 6.23192 19.0066C4.89052 18.9062 3.6578 18.4455 2.53376 17.6245C0.844586 16.3748 0 14.4408 0 11.8227C0 9.21365 0.844586 7.27969 2.53376 6.0208C3.68264 5.19066 4.91536 4.73454 6.23192 4.65244C6.80326 4.61595 7.34355 4.5977 7.85278 4.5977C8.36202 4.5977 8.89299 4.62963 9.4457 4.69349ZM11.2529 9.07225C10.8119 8.95366 10.2344 8.89436 9.52022 8.89436L8.19745 8.92173C7.39633 8.96734 6.74737 9.1726 6.25055 9.53749C5.63575 9.99361 5.32834 10.7553 5.32834 11.8227C5.32834 13.3096 5.94936 14.2264 7.1914 14.5731C7.65095 14.7008 8.30613 14.7646 9.15692 14.7646H9.52022C9.75 14.7646 10.0139 14.7555 10.312 14.7373C10.6101 14.719 10.9268 14.6643 11.2622 14.5731C11.5975 14.4818 11.9018 14.3359 12.1751 14.1352C12.4545 13.9254 12.675 13.638 12.8365 13.2731C13.0041 12.8991 13.088 12.4156 13.088 11.8227C13.088 11.2388 13.0041 10.7599 12.8365 10.3859C12.5322 9.71994 12.0043 9.28207 11.2529 9.07225Z" fill="#4085EC"/>
<path d="M28.061 20.0055C27.5455 20.0055 26.8935 19.9827 26.1048 19.9371C24.1548 19.8367 22.5991 19.3487 21.4378 18.4729C19.7486 17.1319 18.9041 15.0748 18.9041 12.3016C18.9041 9.52837 19.7486 7.4667 21.4378 6.11658C22.5991 5.24995 24.1548 4.7619 26.1048 4.65244C26.8935 4.60682 27.5455 4.58402 28.061 4.58402C28.5702 4.58402 29.2192 4.60682 30.0079 4.65244C31.9641 4.7619 33.5228 5.24995 34.6842 6.11658C36.3733 7.4667 37.2179 9.52837 37.2179 12.3016C37.2179 15.0748 36.3733 17.1319 34.6842 18.4729C33.5228 19.3487 31.9641 19.8367 30.0079 19.9371C29.2192 19.9827 28.5702 20.0055 28.061 20.0055ZM31.6567 13.9299C31.8119 13.5103 31.8896 12.9675 31.8896 12.3016C31.8896 10.5683 31.3027 9.51469 30.129 9.14067C29.6632 8.98559 28.9739 8.90805 28.061 8.90805C27.7256 8.90805 27.3779 8.92173 27.0177 8.9491C26.6637 8.96734 26.319 9.0312 25.9837 9.14067C25.6545 9.24101 25.3564 9.41434 25.0894 9.66065C24.8286 9.89783 24.6174 10.2308 24.456 10.6596C24.3007 11.0792 24.2231 11.6265 24.2231 12.3016C24.2231 14.0348 24.81 15.0885 25.9837 15.4625C26.4557 15.6085 27.1481 15.6814 28.061 15.6814C28.3963 15.6814 28.741 15.6723 29.095 15.6541C29.4552 15.6267 29.7998 15.5629 30.129 15.4625C30.4581 15.353 30.7531 15.1797 31.0139 14.9425C31.281 14.6962 31.4952 14.3587 31.6567 13.9299Z" fill="#4085EC"/>
<path d="M53.6162 6.08922C54.1006 6.52709 54.4856 7.11549 54.7713 7.85441C55.0631 8.5842 55.2091 9.501 55.2091 10.6048V19.5265H50.0018V11.7132C50.0018 10.9834 49.7752 10.3494 49.3218 9.81117C49.0113 9.48276 48.6263 9.28663 48.1667 9.22277C47.7941 9.17716 47.465 9.15435 47.1793 9.15435C46.1857 9.15435 45.4063 9.26838 44.8412 9.49644C43.6861 9.96169 43.1085 10.8967 43.1085 12.3016V19.5265H37.9013V0H43.1085V6.43131C43.7854 5.83835 44.6114 5.38679 45.5864 5.07663C46.5614 4.75734 47.406 4.5977 48.1201 4.5977C48.7412 4.5977 49.3839 4.62963 50.0484 4.69349C50.7129 4.74822 51.3494 4.88506 51.958 5.104C52.5728 5.32293 53.1256 5.65134 53.6162 6.08922Z" fill="#4085EC"/>
<path d="M65.5244 4.69349C66.0709 4.62051 66.6019 4.58402 67.1174 4.58402C67.6266 4.58402 68.17 4.60682 68.7475 4.65244C70.0641 4.75278 71.2937 5.24083 72.4364 6.11658C74.1256 7.45758 74.9701 9.51925 74.9701 12.3016C74.9701 15.0748 74.1256 17.1319 72.4364 18.4729C71.2937 19.3578 70.0641 19.8458 68.7475 19.9371C68.17 19.9827 67.6266 20.0055 67.1174 20.0055C66.6019 20.0055 66.0709 19.969 65.5244 19.896C64.9779 19.823 64.4252 19.6771 63.8663 19.4581C63.3074 19.2301 62.7485 18.9017 62.1896 18.4729C61.9846 18.3178 61.7983 18.1263 61.6307 17.8982V19.5265H56.6749V0H61.8729V6.40394C61.9784 6.29447 62.084 6.19869 62.1896 6.11658C62.7485 5.68783 63.3074 5.36398 63.8663 5.14505C64.4252 4.92611 64.9779 4.77559 65.5244 4.69349ZM69.381 13.711C69.5549 13.337 69.6418 12.8672 69.6418 12.3016C69.6418 11.2616 69.322 10.4817 68.6823 9.96169C68.0054 9.42346 67.049 9.15435 65.8132 9.15435C65.0494 9.15435 64.3693 9.25014 63.7732 9.44171C63.1832 9.63328 62.7174 9.96169 62.3759 10.4269C62.0405 10.8831 61.8729 11.5079 61.8729 12.3016C61.8729 13.0952 62.0405 13.7201 62.3759 14.1762C62.7174 14.6324 63.1832 14.9562 63.7732 15.1478C64.3693 15.3394 65.0494 15.4351 65.8132 15.4351C67.6514 15.4351 68.8407 14.8604 69.381 13.711Z" fill="#4085EC"/>
<path d="M84.4751 20.0055C83.9596 20.0055 83.3076 19.9827 82.5189 19.9371C80.5689 19.8367 79.0132 19.3487 77.8519 18.4729C76.1627 17.1319 75.3182 15.0748 75.3182 12.3016C75.3182 9.52837 76.1627 7.4667 77.8519 6.11658C79.0132 5.24995 80.5689 4.7619 82.5189 4.65244C83.3076 4.60682 83.9596 4.58402 84.4751 4.58402C84.9843 4.58402 85.6333 4.60682 86.422 4.65244C88.3782 4.7619 89.9369 5.24995 91.0983 6.11658C92.7874 7.4667 93.632 9.52837 93.632 12.3016C93.632 15.0748 92.7874 17.1319 91.0983 18.4729C89.9369 19.3487 88.3782 19.8367 86.422 19.9371C85.6333 19.9827 84.9843 20.0055 84.4751 20.0055ZM88.0708 13.9299C88.226 13.5103 88.3037 12.9675 88.3037 12.3016C88.3037 10.5683 87.7168 9.51469 86.5431 9.14067C86.0773 8.98559 85.388 8.90805 84.4751 8.90805C84.1397 8.90805 83.792 8.92173 83.4318 8.9491C83.0778 8.96734 82.7331 9.0312 82.3978 9.14067C82.0686 9.24101 81.7705 9.41434 81.5035 9.66065C81.2427 9.89783 81.0315 10.2308 80.8701 10.6596C80.7148 11.0792 80.6372 11.6265 80.6372 12.3016C80.6372 14.0348 81.224 15.0885 82.3978 15.4625C82.8698 15.6085 83.5622 15.6814 84.4751 15.6814C84.8104 15.6814 85.1551 15.6723 85.5091 15.6541C85.8693 15.6267 86.2139 15.5629 86.5431 15.4625C86.8722 15.353 87.1672 15.1797 87.428 14.9425C87.6951 14.6962 87.9093 14.3587 88.0708 13.9299Z" fill="#4085EC"/>
<path d="M104.795 19.8276C102.969 19.9462 101.519 20.0055 100.445 20.0055H100.147C99.6065 20.0055 99.0879 19.9781 98.5911 19.9234C98.1005 19.8686 97.6596 19.6999 97.2683 19.4171C96.8833 19.1343 96.5852 18.669 96.3741 18.0213C96.1629 17.3645 96.0573 16.4432 96.0573 15.2573V9.30487H93.2162V5.06294H96.0573V0.342091H101.255V5.06294H105V9.30487H101.255V14.0941C101.255 15.1159 101.619 15.6267 102.345 15.6267C102.575 15.6267 103.46 15.5857 105 15.5036V19.8139L104.795 19.8276Z" fill="#4085EC"/>
</svg>
