<svg width="27" height="27" viewBox="0 0 27 27" fill="none" xmlns="http://www.w3.org/2000/svg">
<g clip-path="url(#clip0_37_1147)">
<path d="M16.875 5.0625H10.125L7.62539 1.31309C7.25098 0.748828 7.65176 0 8.32676 0H18.6732C19.3482 0 19.749 0.748828 19.3746 1.31309L16.875 5.0625ZM10.125 6.75H16.875C17.0754 6.88184 17.3021 7.02949 17.5605 7.19297C20.5506 9.10723 27 13.2311 27 21.9375C27 24.7324 24.7324 27 21.9375 27H5.0625C2.26758 27 0 24.7324 0 21.9375C0 13.2311 6.44941 9.10723 9.43945 7.19297C9.69258 7.02949 9.92461 6.88184 10.125 6.75ZM14.5547 11.3906C14.5547 10.8105 14.0801 10.3359 13.5 10.3359C12.9199 10.3359 12.4453 10.8105 12.4453 11.3906V12.1289C12.0445 12.2186 11.6438 12.3609 11.2746 12.5771C10.5416 13.0148 9.90879 13.7795 9.91406 14.8922C9.91934 15.9627 10.5469 16.6377 11.2166 17.0385C11.7967 17.3865 12.5191 17.608 13.0939 17.7768L13.1836 17.8031C13.848 18.0035 14.3332 18.1617 14.6602 18.3674C14.9291 18.5361 14.966 18.6521 14.9713 18.7998C14.9766 19.0635 14.8764 19.2217 14.6602 19.3535C14.3965 19.517 13.9799 19.6172 13.5316 19.6014C12.9463 19.5803 12.3979 19.3957 11.6807 19.1531C11.5594 19.1109 11.4328 19.0687 11.301 19.0266C10.7473 18.842 10.1514 19.1426 9.9668 19.691C9.78223 20.2395 10.0828 20.8406 10.6313 21.0252C10.7314 21.0568 10.8422 21.0938 10.9529 21.1359C11.3906 21.2889 11.8969 21.4629 12.44 21.5789V22.3594C12.44 22.9395 12.9146 23.4141 13.4947 23.4141C14.0748 23.4141 14.5494 22.9395 14.5494 22.3594V21.6316C14.9713 21.542 15.3932 21.3943 15.7729 21.157C16.527 20.6877 17.0965 19.8861 17.0807 18.784C17.0648 17.7135 16.4637 17.0227 15.7834 16.5902C15.177 16.2105 14.4176 15.9785 13.827 15.7992L13.79 15.7887C13.115 15.583 12.6352 15.4354 12.2977 15.235C12.0234 15.0715 12.0182 14.9766 12.0182 14.8816C12.0182 14.6865 12.092 14.5389 12.3451 14.3912C12.6299 14.2225 13.0623 14.1223 13.4789 14.1275C13.9852 14.1328 14.5441 14.2436 15.1242 14.4018C15.6885 14.5494 16.2633 14.2172 16.4162 13.6529C16.5691 13.0887 16.2316 12.5139 15.6674 12.3609C15.3246 12.2713 14.9449 12.1816 14.5547 12.1131V11.3906Z" fill="#4085EC"/>
</g>
<defs>
<clipPath id="clip0_37_1147">
<rect width="27" height="27" fill="white"/>
</clipPath>
</defs>
</svg>
