<svg width="15" height="13" viewBox="0 0 15 13" fill="none" xmlns="http://www.w3.org/2000/svg">
<path d="M8.83598 9.32085C9.54692 9.22183 10.1875 8.82827 10.586 8.23159L14.7969 1.8814C15.125 1.38628 15.0417 0.731201 14.599 0.32749C14.1563 -0.0762213 13.4818 -0.111768 12.9974 0.243701L6.83337 4.75308C6.20837 5.21011 5.83858 5.92358 5.83337 6.6853L8.83598 9.32085ZM8.32556 9.96577L5.30473 7.31499C3.74744 7.37085 2.50004 8.62261 2.50004 10.1562C2.50004 10.2552 2.50525 10.3542 2.51567 10.4507C2.56254 10.8951 2.25004 11.375 1.79171 11.375H1.66671C1.20577 11.375 0.833374 11.738 0.833374 12.1875C0.833374 12.6369 1.20577 12.9999 1.66671 12.9999H5.41671C7.02869 12.9999 8.33337 11.7279 8.33337 10.1562C8.33337 10.0927 8.33077 10.0292 8.32817 9.96577H8.32556Z" fill="#4085EC"/>
</svg>
