<svg width="13" height="13" viewBox="0 0 13 13" fill="none" xmlns="http://www.w3.org/2000/svg">
<path d="M9.20925 0.48999L7.98034 1.7189L11.2811 5.01968L12.51 3.79077C13.1448 3.15601 13.1448 2.12769 12.51 1.49292L11.5096 0.48999C10.8749 -0.144775 9.84655 -0.144775 9.21179 0.48999H9.20925ZM7.40651 2.29272L1.48796 8.21382C1.2239 8.47788 1.03093 8.80542 0.924287 9.16343L0.0254588 12.2179C-0.0380178 12.4337 0.0203807 12.6648 0.177803 12.8222C0.335224 12.9796 0.566279 13.038 0.77956 12.9771L3.83405 12.0783C4.19206 11.9716 4.5196 11.7787 4.78366 11.5146L10.7073 5.59351L7.40651 2.29272Z" fill="#4085EC"/>
</svg>
