<svg width="16" height="16" viewBox="0 0 16 16" fill="none" xmlns="http://www.w3.org/2000/svg">
<g id="magnifying-glass-solid 1" clip-path="url(#clip0_19_288)">
<path id="Vector" d="M13 6.5C13 7.93437 12.5344 9.25938 11.75 10.3344L15.7063 14.2937C16.0969 14.6844 16.0969 15.3188 15.7063 15.7094C15.3156 16.1 14.6812 16.1 14.2906 15.7094L10.3344 11.75C9.25938 12.5375 7.93437 13 6.5 13C2.90937 13 0 10.0906 0 6.5C0 2.90937 2.90937 0 6.5 0C10.0906 0 13 2.90937 13 6.5ZM6.5 11C8.98438 11 11 8.98438 11 6.5C11 4.01562 8.98438 2 6.5 2C4.01562 2 2 4.01562 2 6.5C2 8.98438 4.01562 11 6.5 11Z" fill="#676C74"/>
</g>
<defs>
<clipPath id="clip0_19_288">
<rect width="16" height="16" fill="white"/>
</clipPath>
</defs>
</svg>
