<svg width="189" height="157" viewBox="0 0 189 157" fill="none" xmlns="http://www.w3.org/2000/svg">
<g style="mix-blend-mode:screen">
<path d="M188.926 13.6256C186.307 41.2087 174.974 108.145 169.206 139.039C166.767 152.11 161.963 156.494 157.313 156.922C147.207 157.855 139.531 150.228 129.742 143.796C114.424 133.732 105.771 127.467 90.9014 117.647C73.7184 106.298 84.8577 100.062 94.6503 89.8631C97.2132 87.1951 141.744 46.598 142.606 42.9151C142.714 42.4544 142.817 40.7347 141.796 39.8315C140.776 38.9284 139.277 39.2343 138.193 39.4798C136.657 39.8296 112.186 56.0407 64.7812 88.1131C57.836 92.8932 51.5448 95.2224 45.9076 95.1005C39.6934 94.9661 27.74 91.5793 18.8534 88.6835C7.95413 85.1328 -0.708611 83.2555 0.0457994 77.2247C0.438795 74.0829 4.75472 70.8708 12.9936 67.5884C63.7302 45.4328 97.5624 30.8259 114.49 23.7677C162.823 3.61789 172.866 0.117859 179.412 0.00109721C180.852 -0.0228178 184.071 0.334507 186.156 2.03036C187.543 3.23841 188.427 4.92422 188.634 6.75428C188.987 9.02658 189.085 11.3314 188.926 13.6256Z" fill="#5693EE"/>
</g>
</svg>
