<svg width="27" height="27" viewBox="0 0 27 27" fill="none" xmlns="http://www.w3.org/2000/svg">
<path d="M9.28125 4.64062V6.75H17.7188V4.64062C17.7188 4.40859 17.5289 4.21875 17.2969 4.21875H9.70312C9.47109 4.21875 9.28125 4.40859 9.28125 4.64062ZM6.75 6.75V4.64062C6.75 3.01113 8.07363 1.6875 9.70312 1.6875H17.2969C18.9264 1.6875 20.25 3.01113 20.25 4.64062V6.75H21.7318C22.4016 6.75 23.0449 7.01895 23.5195 7.49356L26.2564 10.2305C26.7311 10.7051 27 11.3484 27 12.0182V16.0312H20.25V15.1875C20.25 14.2541 19.4959 13.5 18.5625 13.5C17.6291 13.5 16.875 14.2541 16.875 15.1875V16.0312H10.125V15.1875C10.125 14.2541 9.3709 13.5 8.4375 13.5C7.5041 13.5 6.75 14.2541 6.75 15.1875V16.0312H0V12.0182C0 11.3484 0.268945 10.7051 0.743555 10.2305L3.48047 7.49356C3.95508 7.01895 4.59844 6.75 5.26816 6.75H6.75ZM0 21.9375V17.7188H6.75V18.5625C6.75 19.4959 7.5041 20.25 8.4375 20.25C9.3709 20.25 10.125 19.4959 10.125 18.5625V17.7188H16.875V18.5625C16.875 19.4959 17.6291 20.25 18.5625 20.25C19.4959 20.25 20.25 19.4959 20.25 18.5625V17.7188H27V21.9375C27 23.799 25.4865 25.3125 23.625 25.3125H3.375C1.51348 25.3125 0 23.799 0 21.9375Z" fill="#4085EC"/>
</svg>
